# xmcd CD database file generated by OrangeCD 4.3
#
# Track frame offsets:
#	150
#	11330
#	27026
#	36482
#	46520
#	56488
#	69328
#	81081
#	95363
#	105204
#	115477
#	125529
#	136603
#	152053
#	164469
#	175196
#
# Disc length: 2498 seconds
#
# Revision: 0
# Processed by: cddbd v1.5.2PL0 Copyright (c) Steve Scherf et al.
# Submitted via: OrangeCD 4.3
#
DISCID=bb09c010
DTITLE=Jimmy Dean - Jimmy Dean
DYEAR=1999
DGENRE=Country
TTITLE0=Skip A Rope
TTITLE1=Me And Red And Bill
TTITLE2=If It's Wrong To Love You
TTITLE3=Bill Bailey
TTITLE4=A Thing Called Love
TTITLE5=One Last Time
TTITLE6=Let's Pick Up The Pieces
TTITLE7=Waking Up To Love
TTITLE8=When It's Sleepy Time Downs
TTITLE9=Read 'em And Weep
TTITLE10=That New Old Fashioned Love
TTITLE11=Nine Pound Hammer
TTITLE12=Let Me Sing My Song
TTITLE13=Frilly Shirt
TTITLE14=Angel In Apron
TTITLE15=A Rose Is A Rose Is A Rose
EXTD=
EXTT0=
EXTT1=
EXTT2=
EXTT3=
EXTT4=
EXTT5=
EXTT6=
EXTT7=
EXTT8=
EXTT9=
EXTT10=
EXTT11=
EXTT12=
EXTT13=
EXTT14=
EXTT15=
PLAYORDER=
